<?xml version="1.0" encoding="UTF-8" standalone="no"?>
<!DOCTYPE svg PUBLIC "-//W3C//DTD SVG 1.1//EN" "http://www.w3.org/Graphics/SVG/1.1/DTD/svg11.dtd">
<svg width="100%" height="100%" viewBox="0 0 298 279" version="1.1" xmlns="http://www.w3.org/2000/svg" xmlns:xlink="http://www.w3.org/1999/xlink" xml:space="preserve" xmlns:serif="http://www.serif.com/" style="fill-rule:evenodd;clip-rule:evenodd;stroke-linejoin:round;stroke-miterlimit:2;">
    <g transform="matrix(1,0,0,1,-17.634189,-27.497881)">
        <g transform="matrix(0.160603,0,0,0.998442,-21.406591,-28.436125)">
            <g id="Merge" transform="matrix(5.988925,0,-0.957915,0.893525,-848.133334,24.747879)">
                <path d="M431.682,326.283C412.04,335.48 390.124,340.62 367.018,340.62C282.68,340.62 214.208,272.148 214.208,187.81C214.208,103.472 282.68,35 367.018,35C451.356,35 519.828,103.472 519.828,187.81C519.828,223.992 507.226,257.253 486.175,283.441C504.225,307.218 521.652,327.1 538.916,345.965C505.824,348.755 470.213,342.665 431.682,326.283ZM431.301,267.484C454.537,248.708 469.407,219.982 469.407,187.81C469.407,131.3 423.528,85.421 367.018,85.421C310.508,85.421 264.629,131.3 264.629,187.81C264.629,244.32 310.508,290.199 367.018,290.199C378.891,290.199 390.295,288.174 400.903,284.45C420.745,296.804 439.761,303.98 458.067,306.711C449.171,294.92 440.263,282.515 431.301,267.484ZM380.464,146.083L402.052,146.083C428.18,146.083 449.311,168.953 449.21,197.124L449.185,204.013C449.083,232.183 427.788,255.054 401.659,255.054L350.953,255.054C324.824,255.054 303.693,232.183 303.795,204.013L303.82,197.124C303.921,168.953 325.216,146.083 351.345,146.083L370.769,146.083L370.841,126.033C364.97,123.816 360.77,117.779 360.796,110.688C360.828,101.719 367.608,94.438 375.927,94.438C384.246,94.438 390.974,101.719 390.942,110.688C390.916,117.879 386.552,123.986 380.536,126.124L380.464,146.083ZM357.667,189.77C357.688,184.058 353.403,179.421 348.105,179.421L346.809,179.421C341.511,179.421 337.193,184.058 337.172,189.77L337.102,209.306C337.081,215.019 341.366,219.656 346.664,219.656L347.96,219.656C353.258,219.656 357.576,215.019 357.597,209.306L357.667,189.77ZM418.493,189.77C418.513,184.058 414.229,179.421 408.93,179.421L407.635,179.421C402.337,179.421 398.019,184.058 397.998,189.77L397.928,209.306C397.907,215.019 402.192,219.656 407.49,219.656L408.786,219.656C414.084,219.656 418.402,215.019 418.422,209.306L418.493,189.77Z" style="fill:url(#_Linear1);"/>
            </g>
        </g>
    </g>
    <defs>
        <linearGradient id="_Linear1" x1="0" y1="0" x2="1" y2="0" gradientUnits="userSpaceOnUse" gradientTransform="matrix(309.543063,0,53.379316,333.729861,212.725931,190.808636)"><stop offset="0" style="stop-color:rgb(30,205,255);stop-opacity:1"/><stop offset="1" style="stop-color:rgb(235,131,255);stop-opacity:1"/></linearGradient>
    </defs>
</svg>
